<svg width="104" height="42" viewBox="0 0 104 42" fill="none" xmlns="http://www.w3.org/2000/svg">
<rect x="3.33301" y="16.0345" width="3.99735" height="3.99735" rx="1.99867" transform="rotate(-45 3.33301 16.0345)" fill="#FF7383"/>
<rect y="19.3203" width="3.99735" height="3.99735" rx="1.99867" transform="rotate(-45 0 19.3203)" fill="#FFC400"/>
<rect x="3.33301" y="22.681" width="3.99735" height="3.99735" rx="1.99867" transform="rotate(-45 3.33301 22.681)" fill="#7AD2A6"/>
<rect y="25.9655" width="3.99735" height="3.99735" rx="1.99867" transform="rotate(-45 0 25.9655)" fill="white"/>
<path d="M20.4191 19.4536C20.4191 19.8797 20.5772 20.189 20.8934 20.3814C21.2095 20.6151 21.8831 20.8557 22.914 21.1031C23.9999 21.3643 24.7903 21.7216 25.2851 22.1753C25.7937 22.6289 26.048 23.2818 26.048 24.134C26.048 25.0275 25.7112 25.7491 25.0377 26.299C24.3779 26.8488 23.5119 27.1237 22.4398 27.1237C20.8865 27.1237 19.4844 26.5739 18.2336 25.4742L19.3057 24.1959C20.3504 25.0893 21.4088 25.5361 22.481 25.5361C23.0171 25.5361 23.4501 25.4192 23.78 25.1856C24.1099 24.9381 24.2748 24.622 24.2748 24.2371C24.2748 23.8522 24.1236 23.5498 23.8212 23.3299C23.5325 23.11 23.0102 22.9107 22.2542 22.732C20.9483 22.4296 20.0411 22.0722 19.5325 21.6598C18.9415 21.2062 18.6459 20.512 18.6459 19.5773C18.6459 18.6701 18.9758 17.9622 19.6356 17.4536C20.2954 16.9313 21.1408 16.6701 22.1717 16.6701C23.56 16.6701 24.749 17.0756 25.7387 17.8866L24.8315 19.1649C24.5291 18.89 24.1236 18.6701 23.615 18.5052C23.1064 18.3265 22.6047 18.2371 22.1099 18.2371C21.6013 18.2371 21.1889 18.3471 20.8727 18.567C20.5703 18.7732 20.4191 19.0687 20.4191 19.4536ZM35.5826 24.7113L34.5722 27H32.7578L37.2114 16.9175H39.0259L43.4588 27H41.6444L40.6341 24.7113H35.5826ZM39.9537 23.1237L38.1186 18.9794L36.2836 23.1237H39.9537ZM54.6774 18.4639V27H52.9661V18.4639H49.9145V16.9175H57.729V18.4639H54.6774ZM70.2533 18.2165C69.2498 18.2165 68.4045 18.5739 67.7172 19.2887C67.0299 20.0034 66.6863 20.8694 66.6863 21.8866C66.6863 22.9038 67.0299 23.7698 67.7172 24.4845C68.4045 25.1856 69.2498 25.5361 70.2533 25.5361C71.2567 25.5361 72.1021 25.1856 72.7893 24.4845C73.4766 23.7698 73.8203 22.9038 73.8203 21.8866C73.8203 20.8694 73.4766 20.0034 72.7893 19.2887C72.1021 18.5739 71.2567 18.2165 70.2533 18.2165ZM70.2533 27.1031C68.7412 27.1031 67.4766 26.6082 66.4594 25.6186C65.4423 24.6151 64.9337 23.3711 64.9337 21.8866C64.9337 20.4021 65.4423 19.1649 66.4594 18.1753C67.4766 17.1718 68.7412 16.6701 70.2533 16.6701C71.7653 16.6701 73.0299 17.1718 74.0471 18.1753C75.0643 19.1649 75.5728 20.4021 75.5728 21.8866C75.5728 23.3711 75.0574 24.6082 74.0265 25.5979C72.9955 26.6014 71.7378 27.1031 70.2533 27.1031ZM89.5987 23.3299L92.2378 27H90.0729L87.6605 23.5979H85.4337V27H83.7224V16.9175H87.475C89.0007 16.9175 90.0935 17.1787 90.7533 17.701C91.4268 18.2096 91.7636 19.0412 91.7636 20.1959C91.7636 21.8591 91.042 22.9038 89.5987 23.3299ZM87.5368 22.0722C88.4853 22.0722 89.1382 21.9278 89.4956 21.6392C89.853 21.3505 90.0317 20.8625 90.0317 20.1753C90.0317 19.5155 89.853 19.0687 89.4956 18.8351C89.1382 18.5876 88.499 18.4639 87.578 18.4639H85.4337V22.0722H87.5368ZM100.23 16.9175H101.942V27H100.23V16.9175Z" fill="white"/>
</svg>
